<svg width="14" height="13" viewBox="0 0 14 13" fill="none" xmlns="http://www.w3.org/2000/svg">
<path d="M4.18715 10.8446L7.00148 9.20432L9.83713 10.8341L9.08025 7.74165L11.5321 5.69393L8.29138 5.41184L7.00148 2.46563L5.71158 5.42229L2.47083 5.69393L4.94403 7.73121L4.18715 10.8446ZM7.00148 10.8341L3.4729 12.9028C3.32366 12.9794 3.17975 13.0107 3.04116 12.9968C2.90258 12.9829 2.77998 12.9376 2.67338 12.861C2.56678 12.7844 2.4886 12.6764 2.43885 12.5371C2.3891 12.3978 2.38555 12.2585 2.42819 12.1192L3.35564 8.26403L0.242819 5.67303C0.122002 5.56856 0.0473793 5.44841 0.0189517 5.31259C-0.00947587 5.17677 -0.00592242 5.04618 0.0296121 4.92081C0.0651466 4.79544 0.141546 4.68748 0.25881 4.59693C0.376073 4.50639 0.509328 4.45763 0.658573 4.45067L4.73083 4.09545L6.3512 0.428351C6.42227 0.282085 6.51466 0.174126 6.62837 0.104476C6.74208 0.0348253 6.86645 0 7.00148 0C7.13651 0 7.26088 0.0348253 7.37459 0.104476C7.4883 0.174126 7.58069 0.282085 7.65176 0.428351L9.27213 4.11635L13.3444 4.45067C13.4936 4.45763 13.6269 4.50987 13.7442 4.60738C13.8614 4.70489 13.9378 4.81633 13.9733 4.9417C14.0089 5.06707 14.0089 5.19419 13.9733 5.32304C13.9378 5.45189 13.8596 5.56856 13.7388 5.67303L10.6473 8.26403L11.5748 12.1192C11.6174 12.2585 11.6139 12.3978 11.5641 12.5371C11.5144 12.6764 11.4362 12.7844 11.3296 12.861C11.223 12.9376 11.1004 12.9829 10.9618 12.9968C10.8232 13.0107 10.6793 12.9794 10.5301 12.9028L7.00148 10.8341Z" fill="currentColor"/>
</svg>
